<svg xmlns="http://www.w3.org/2000/svg" viewBox="0 0 64 64">
  <rect width="64" height="64" rx="14" fill="#3b82f6"/>
  <circle cx="32" cy="32" r="21" fill="none" stroke="white" stroke-width="3"/>
  <circle cx="32" cy="32" r="8" fill="white"/>
  <circle cx="32" cy="32" r="4" fill="#3b82f6"/>
  <circle cx="32" cy="16" r="5" fill="white"/>
  <circle cx="46" cy="24" r="5" fill="white"/>
  <circle cx="46" cy="40" r="5" fill="white"/>
  <circle cx="32" cy="48" r="5" fill="white"/>
  <circle cx="18" cy="40" r="5" fill="white"/>
  <circle cx="18" cy="24" r="5" fill="white"/>
  <rect x="10" y="0" width="8" height="12" rx="2" fill="white" opacity="0.9"/>
  <rect x="27" y="0" width="8" height="12" rx="2" fill="white" opacity="0.9"/>
  <rect x="44" y="0" width="8" height="12" rx="2" fill="white" opacity="0.9"/>
  <rect x="10" y="52" width="8" height="12" rx="2" fill="white" opacity="0.9"/>
  <rect x="27" y="52" width="8" height="12" rx="2" fill="white" opacity="0.9"/>
  <rect x="44" y="52" width="8" height="12" rx="2" fill="white" opacity="0.9"/>
</svg>
